<svg xmlns="http://www.w3.org/2000/svg" width="600" height="400" viewBox="0 0 600 400">
  <rect width="600" height="400" fill="#e8f4e8"/>
  <!-- Calles -->
  <rect x="0" y="180" width="600" height="40" fill="#f5f5f5"/>
  <rect x="280" y="0" width="40" height="400" fill="#f5f5f5"/>
  <!-- Manzanas -->
  <rect x="30" y="30" width="220" height="130" rx="5" fill="#c8e6c9"/>
  <rect x="350" y="30" width="220" height="130" rx="5" fill="#c8e6c9"/>
  <rect x="30" y="240" width="220" height="130" rx="5" fill="#c8e6c9"/>
  <rect x="350" y="240" width="220" height="130" rx="5" fill="#c8e6c9"/>
  <!-- Marcador -->
  <ellipse cx="460" cy="305" rx="25" ry="10" fill="#000" opacity="0.2"/>
  <path d="M460 240 C430 240 420 270 420 285 C420 310 460 340 460 340 C460 340 500 310 500 285 C500 270 490 240 460 240 Z" fill="#8B0000"/>
  <circle cx="460" cy="275" r="12" fill="#FDF8F3"/>
  <!-- Texto -->
  <text x="300" y="200" font-family="Georgia, serif" font-size="18" fill="#2C5530" text-anchor="middle">Av. Insurgentes Sur 1234</text>
  <text x="460" cy="380" font-family="Arial, sans-serif" font-size="12" fill="#666" text-anchor="middle">El Buen Sabor</text>
  <!-- Borde -->
  <rect x="0" y="0" width="600" height="400" fill="none" stroke="#ddd" stroke-width="2"/>
</svg>
